# Blender 4.5.4 LTS
# www.blender.org
mtllib boat1.mtl
o Cube
v 1.700000 0.679676 -1.500000
v 1.510152 -0.320324 -1.500000
v 1.700000 0.679676 3.000000
v 1.513588 -0.320324 2.730743
v 0.000000 -0.320324 -3.036611
v 0.000000 0.679676 5.600000
v 0.000000 -0.320324 4.600000
v 0.000000 0.679676 -1.136971
v 0.850000 -0.320324 4.045116
v 0.850000 0.679676 -1.136971
v 0.850000 -0.320324 -3.036611
v 0.850000 0.679676 4.677146
v 1.700000 0.679676 1.479111
v 0.000000 0.679676 1.479111
v 0.850000 0.679676 1.479111
v 1.605779 0.174232 2.863905
v 1.700000 0.679676 -0.784832
v 0.000000 0.679676 -0.784832
v 0.850000 0.679676 -0.784832
v 1.700000 0.679676 2.297828
v 0.000000 0.679676 3.697448
v 0.850000 0.679676 3.200661
v 1.599652 0.141361 0.084945
v 1.649279 0.407588 1.179338
v 0.000000 1.765084 -0.784832
v 0.000000 1.765084 1.479111
v 0.850000 1.679677 -0.784832
v 0.850000 1.679677 1.479111
v 0.000000 1.679677 3.697448
v 0.850000 1.679677 3.200661
v 0.000000 2.679677 1.479111
v 1.255304 2.576704 1.511652
v 0.000000 2.679677 3.697448
v 1.255304 2.576704 2.969917
v 0.425000 -0.320324 -3.036611
v 0.425000 0.679676 5.138573
v 0.425000 -0.320324 4.322558
v 0.425000 0.679676 -1.136971
v 0.425000 0.679676 -0.784832
v 0.425000 0.679676 3.449054
v 0.425000 1.748452 1.479111
v 0.425000 1.748452 -0.784832
v 0.425000 1.679677 3.449054
v 0.627652 2.679677 1.479111
v 0.627652 2.679677 3.449054
v 1.167342 2.179677 3.200661
v 0.000000 2.179677 3.697448
v 0.000000 2.179677 1.479111
v 1.167342 2.179677 1.479111
v 0.526326 2.179677 1.479111
v 0.526326 2.179677 3.449054
v 0.850000 1.387434 3.200661
v 0.000000 1.387434 3.697448
v 0.000000 1.447881 -0.784832
v 0.850000 1.387434 -0.784832
v 0.850000 1.387434 1.479111
v 0.000000 1.447881 1.479111
v 0.425000 1.387434 3.449054
v 0.425000 1.436110 -0.784832
v 1.700000 0.679676 -2.800000
v 1.510152 -0.320324 -2.800000
v 0.850000 0.679676 -3.297464
v 0.850000 -0.320324 -3.297464
v 0.850000 -0.320324 2.728963
v 0.425000 -0.320324 2.727823
v 0.000000 -0.320324 2.726683
v 0.425000 -0.489624 -3.036611
v 0.000000 -0.489624 -3.036611
v 0.850000 -0.489624 -3.036611
v 0.850000 -0.489624 2.409103
v 0.425000 -0.489624 2.407962
v 0.000000 -0.489624 2.406822
v 1.368118 0.679676 -1.500000
v 1.252396 -0.320324 -2.099969
v 1.368118 0.679676 3.654841
v 1.368118 0.679676 1.479111
v 1.368118 0.679676 -0.784832
v 1.368118 0.679676 2.650339
v 1.368118 0.679676 -2.994235
v 1.252396 -0.320324 -2.994235
v 1.254490 -0.320324 2.730048
v 1.700000 0.679676 -2.464083
v 0.850000 0.679676 -2.961547
v 1.510152 -0.320324 -2.464083
v 0.850000 -0.320324 -2.961547
v 1.252396 -0.320324 -2.658318
v 1.368118 0.679676 -2.658318
v 1.510152 -0.320324 -1.500000
v 1.700000 0.679676 2.545178
v 0.000000 -0.320324 -3.036611
v 0.000000 0.679676 5.145178
v 0.850000 0.679676 4.222324
v 0.850000 -0.320324 -3.036611
v 1.605779 0.174232 2.863905
v 1.513588 -0.320324 2.730743
v 0.425000 -0.320324 -3.036611
v 0.425000 0.679676 4.683751
v 1.510152 -0.320324 -2.800000
v 0.850000 -0.320324 -3.297464
v 1.252396 -0.320324 -2.994235
v 1.368118 0.679676 3.200019
v 0.850000 -0.320324 -2.961547
v 1.510152 -0.320324 -2.464083
v 1.700000 0.959085 2.545178
v 1.700000 0.959085 3.000000
v 1.368118 0.959085 -1.500000
v 1.700000 0.959085 -1.500000
v 0.425000 0.959085 5.138573
v 0.000000 0.959085 5.600000
v 0.000000 0.959085 5.145178
v 1.368118 0.959085 3.654841
v 0.850000 0.959085 4.677146
v 0.850000 0.959085 4.222324
v 1.700000 0.959085 -0.784832
v 1.700000 0.959085 1.479111
v 1.368118 0.959085 1.479111
v 1.368118 0.959085 -0.784832
v 1.700000 0.959085 2.297828
v 1.368118 0.959085 2.650339
v 0.425000 0.959085 4.683751
v 1.368118 0.959085 -2.994235
v 1.700000 0.959085 -2.800000
v 1.700000 0.959085 -2.464083
v 0.850000 0.959085 -3.297464
v 1.368118 0.959085 3.200019
v 1.368118 0.959085 -2.658318
v 0.850000 0.959085 -2.961547
v 1.624465 0.274475 0.632142
v 1.310257 0.179676 -2.994235
v 0.850000 0.179676 -3.297464
v 0.425000 0.179677 4.822558
v 1.652890 0.426954 2.704542
v 1.627529 0.290910 2.021622
v 1.605076 0.179676 -2.464083
v 1.605076 0.179676 -1.500000
v 1.275000 0.179677 3.522558
v 1.652889 0.426954 2.931952
v 1.649826 0.410519 -0.707528
v 0.000000 0.185870 5.106194
v 0.850000 0.179676 4.361131
v 1.605076 0.179676 -2.800000
v 0.850000 0.158319 -2.127362
v 0.850000 0.173545 -2.961547
v 0.000000 2.679677 2.920516
v 1.700000 0.679676 -0.030184
v 1.700000 0.679676 0.724464
v 0.000000 0.679676 -0.030184
v 0.000000 0.679676 0.724464
v 0.850000 0.679676 -0.030184
v 0.850000 0.679676 0.724464
v 1.666186 0.498284 1.552168
v 1.683093 0.588980 1.924998
v 0.000000 1.765084 -0.030184
v 0.000000 1.765084 0.724464
v 0.850000 1.679677 -0.030184
v 0.850000 1.679677 0.724464
v 0.425000 1.748452 -0.030184
v 0.425000 1.748452 0.724464
v 0.850000 1.387434 -0.030184
v 0.850000 1.387434 0.724464
v 0.000000 1.447881 0.724464
v 0.000000 1.447881 -0.030184
v 1.368118 0.679676 -0.030184
v 1.368118 0.679676 0.724464
v 1.700000 0.959085 -0.030184
v 1.700000 0.959085 0.724464
v 1.368118 0.959085 -0.030184
v 1.368118 0.959085 0.724464
v -1.700000 0.679676 -1.500000
v -1.510152 -0.320324 -1.500000
v -1.700000 0.679676 3.000000
v -1.513588 -0.320324 2.730743
v -0.850000 -0.320324 4.045116
v -0.850000 0.679676 -1.136971
v -0.850000 -0.320324 -3.036611
v -0.850000 0.679676 4.677146
v -1.700000 0.679676 1.479111
v -0.850000 0.679676 1.479111
v -1.605779 0.174232 2.863905
v -1.700000 0.679676 -0.784832
v -0.850000 0.679676 -0.784832
v -1.700000 0.679676 2.297828
v -0.850000 0.679676 3.200661
v -1.599652 0.141361 0.084945
v -1.649279 0.407588 1.179338
v -0.850000 1.679677 -0.784832
v -0.850000 1.679677 1.479111
v -0.850000 1.679677 3.200661
v -1.255304 2.576704 1.511652
v -1.255304 2.576704 2.969917
v -0.425000 -0.320324 -3.036611
v -0.425000 0.679676 5.138573
v -0.425000 -0.320324 4.322558
v -0.425000 0.679676 -1.136971
v -0.425000 0.679676 -0.784832
v -0.425000 0.679676 3.449054
v -0.425000 1.748452 1.479111
v -0.425000 1.748452 -0.784832
v -0.425000 1.679677 3.449054
v -0.627652 2.679677 1.479111
v -0.627652 2.679677 3.449054
v -1.167342 2.179677 3.200661
v -1.167342 2.179677 1.479111
v -0.526326 2.179677 1.479111
v -0.526326 2.179677 3.449054
v -0.850000 1.387434 3.200661
v -0.850000 1.387434 -0.784832
v -0.850000 1.387434 1.479111
v -0.425000 1.387434 3.449054
v -0.425000 1.436110 -0.784832
v -1.700000 0.679676 -2.800000
v -1.510152 -0.320324 -2.800000
v -0.850000 0.679676 -3.297464
v -0.850000 -0.320324 -3.297464
v -0.850000 -0.320324 2.728963
v -0.425000 -0.320324 2.727823
v -0.425000 -0.489624 -3.036611
v -0.850000 -0.489624 -3.036611
v -0.850000 -0.489624 2.409103
v -0.425000 -0.489624 2.407962
v -1.368118 0.679676 -1.500000
v -1.252396 -0.320324 -2.099969
v -1.368118 0.679676 3.654841
v -1.368118 0.679676 1.479111
v -1.368118 0.679676 -0.784832
v -1.368118 0.679676 2.650339
v -1.368118 0.679676 -2.994235
v -1.252396 -0.320324 -2.994235
v -1.254490 -0.320324 2.730048
v -1.700000 0.679676 -2.464083
v -0.850000 0.679676 -2.961547
v -1.510152 -0.320324 -2.464083
v -0.850000 -0.320324 -2.961547
v -1.252396 -0.320324 -2.658318
v -1.368118 0.679676 -2.658318
v -1.510152 -0.320324 -1.500000
v -1.700000 0.679676 2.545178
v -0.850000 0.679676 4.222324
v -0.850000 -0.320324 -3.036611
v -1.605779 0.174232 2.863905
v -1.513588 -0.320324 2.730743
v -0.425000 -0.320324 -3.036611
v -0.425000 0.679676 4.683751
v -1.510152 -0.320324 -2.800000
v -0.850000 -0.320324 -3.297464
v -1.252396 -0.320324 -2.994235
v -1.368118 0.679676 3.200019
v -0.850000 -0.320324 -2.961547
v -1.510152 -0.320324 -2.464083
v -1.700000 0.959085 2.545178
v -1.700000 0.959085 3.000000
v -1.368118 0.959085 -1.500000
v -1.700000 0.959085 -1.500000
v -0.425000 0.959085 5.138573
v -1.368118 0.959085 3.654841
v -0.850000 0.959085 4.677146
v -0.850000 0.959085 4.222324
v -1.700000 0.959085 -0.784832
v -1.700000 0.959085 1.479111
v -1.368118 0.959085 1.479111
v -1.368118 0.959085 -0.784832
v -1.700000 0.959085 2.297828
v -1.368118 0.959085 2.650339
v -0.425000 0.959085 4.683751
v -1.368118 0.959085 -2.994235
v -1.700000 0.959085 -2.800000
v -1.700000 0.959085 -2.464083
v -0.850000 0.959085 -3.297464
v -1.368118 0.959085 3.200019
v -1.368118 0.959085 -2.658318
v -0.850000 0.959085 -2.961547
v -1.624465 0.274475 0.632142
v -1.310257 0.179676 -2.994235
v -0.850000 0.179676 -3.297464
v -0.425000 0.179677 4.822558
v -1.652890 0.426954 2.704542
v -1.627529 0.290910 2.021622
v -1.605076 0.179676 -2.464083
v -1.605076 0.179676 -1.500000
v -1.275000 0.179677 3.522558
v -1.652889 0.426954 2.931952
v -1.649826 0.410519 -0.707528
v -0.850000 0.179676 4.361131
v -1.605076 0.179676 -2.800000
v -0.850000 0.158319 -2.127362
v -0.850000 0.173545 -2.961547
v -1.700000 0.679676 -0.030184
v -1.700000 0.679676 0.724464
v -0.850000 0.679676 -0.030184
v -0.850000 0.679676 0.724464
v -1.666186 0.498284 1.552168
v -1.683093 0.588980 1.924998
v -0.850000 1.679677 -0.030184
v -0.850000 1.679677 0.724464
v -0.425000 1.748452 -0.030184
v -0.425000 1.748452 0.724464
v -0.850000 1.387434 -0.030184
v -0.850000 1.387434 0.724464
v -1.368118 0.679676 -0.030184
v -1.368118 0.679676 0.724464
v -1.700000 0.959085 -0.030184
v -1.700000 0.959085 0.724464
v -1.368118 0.959085 -0.030184
v -1.368118 0.959085 0.724464
vn -0.0000 -1.0000 -0.0000
vn 0.9823 -0.1872 -0.0009
vn -0.8920 -0.0000 -0.4521
vn 0.6762 -0.3936 0.6228
vn -1.0000 -0.0000 -0.0000
vn 0.5051 -0.0000 -0.8631
vn 0.8579 -0.2765 0.4331
vn -0.0000 0.8849 -0.4658
vn 0.4191 -0.6420 0.6420
vn 0.8577 -0.2747 0.4347
vn 0.9831 -0.1833 -0.0000
vn -0.0000 1.0000 -0.0000
vn -0.0000 -0.0000 -1.0000
vn 0.5046 -0.0000 0.8634
vn 0.0391 0.9992 -0.0000
vn 0.3604 -0.0730 0.9300
vn 1.0000 -0.0000 -0.0000
vn 0.9763 -0.2163 -0.0000
vn 0.0281 0.0303 -0.9991
vn 0.1619 0.9868 -0.0000
vn 0.3951 -0.0400 0.9178
vn 0.1597 0.9872 -0.0000
vn -0.0013 -0.8838 0.4678
vn 0.4624 -0.0469 0.8854
vn 0.8443 -0.5359 -0.0000
vn 0.4160 -0.1741 0.8926
vn 0.5729 -0.0875 -0.8149
vn 0.5748 -0.0333 -0.8176
vn 0.8920 -0.0000 0.4521
vn 0.9825 -0.1865 -0.0000
vn -0.7355 -0.0000 -0.6775
vn 0.7355 -0.0000 0.6775
vn -0.5051 -0.0000 0.8631
vn 0.5252 -0.0802 -0.8472
vn 0.9825 -0.1865 -0.0011
vn 0.5266 -0.0305 -0.8496
vn 0.6101 0.2927 0.7363
vn -0.9823 -0.1872 -0.0009
vn 0.8920 -0.0000 -0.4521
vn -0.6762 -0.3936 0.6228
vn -0.5051 -0.0000 -0.8631
vn -0.8579 -0.2765 0.4331
vn -0.4191 -0.6420 0.6420
vn -0.8577 -0.2747 0.4347
vn -0.9831 -0.1833 -0.0000
vn -0.5046 -0.0000 0.8634
vn -0.0391 0.9992 -0.0000
vn -0.3604 -0.0730 0.9300
vn -0.9763 -0.2163 -0.0000
vn -0.0281 0.0303 -0.9991
vn -0.1619 0.9868 -0.0000
vn -0.3951 -0.0400 0.9178
vn -0.1597 0.9872 -0.0000
vn 0.0013 -0.8838 0.4678
vn -0.4624 -0.0469 0.8854
vn -0.8443 -0.5359 -0.0000
vn -0.4160 -0.1741 0.8926
vn -0.5729 -0.0875 -0.8149
vn -0.5748 -0.0333 -0.8176
vn -0.8920 -0.0000 0.4521
vn -0.9825 -0.1865 -0.0000
vn 0.7355 -0.0000 -0.6775
vn -0.7355 -0.0000 0.6775
vn 0.5051 -0.0000 0.8631
vn -0.5252 -0.0802 -0.8472
vn -0.9825 -0.1865 -0.0011
vn -0.5266 -0.0305 -0.8496
vn -0.6101 0.2927 0.7363
vt 0.816137 0.081667
vt 0.816137 0.081667
vt 0.164030 0.431098
vt 0.230471 0.418794
vt 0.230471 0.418794
vt 0.230471 0.418794
vt 0.429794 0.054598
vt 0.429794 0.054598
vt 0.429794 0.054598
vt 0.230471 0.418794
vt 0.710323 0.438480
vt 0.816137 0.081667
vt 0.710323 0.438480
vt 0.164030 0.431098
vt 0.181255 0.782990
vt 0.875196 0.536912
vt 0.764461 0.529529
vt 0.764461 0.529529
vt 0.816137 0.081667
vt 0.875196 0.536912
vt 0.328902 0.059520
vt 0.328902 0.059520
vt 0.230471 0.418794
vt 0.328902 0.059520
vt 0.164030 0.431098
vt 0.208324 0.433559
vt 0.208324 0.433559
vt 0.328902 0.059520
vt 0.328902 0.059520
vt 0.816137 0.081667
vt 0.764461 0.529529
s 0
usemtl Material
f 74/1/1 2/2/1 4/1/1 81/1/1
f 88/1/2 135/1/2 138/1/2 23/1/2 95/1/2
f 101/3/3 92/3/3 113/3/3 125/3/3
f 9/1/4 140/1/4 131/1/4
f 78/3/5 101/3/5 125/3/5 119/3/5
f 60/4/6 79/4/6 121/5/6 122/6/6
f 4/1/7 16/1/7 137/1/7 136/1/7 9/1/7
f 96/7/8 38/7/8 10/8/8 142/9/8 93/7/8
f 66/1/5 5/1/5 68/1/5 72/1/5
f 6/5/9 139/5/9 131/5/9
f 9/1/10 136/1/10 140/1/10
f 152/5/11 146/10/11 13/5/11 20/5/11
f 164/1/12 150/1/12 15/1/12 76/1/12
f 59/11/13 54/11/13 25/11/13 42/11/13
f 38/1/12 8/1/12 18/2/12 39/1/12
f 73/2/12 10/12/12 19/1/12 77/1/12
f 23/1/11 138/1/11 128/1/11
f 95/1/11 23/1/11 128/1/11 133/1/11 94/1/11
f 94/1/11 133/1/11 132/1/11
f 76/1/12 15/1/12 22/1/12 78/1/12
f 58/11/14 52/11/14 30/11/14 43/11/14
f 158/13/15 154/11/15 26/11/15 41/11/15
f 51/11/16 46/11/16 45/11/16
f 52/11/17 56/11/17 28/11/17 30/11/17
f 161/13/5 57/11/5 26/11/5 154/11/5
f 159/13/17 55/11/17 27/11/17 155/13/17
f 57/11/5 53/11/5 29/11/5 26/11/5
f 44/11/12 31/11/12 144/11/12 45/11/12
f 48/11/5 47/11/5 33/11/5 144/11/5 31/11/5
f 50/11/13 48/11/13 31/11/13 44/11/13
f 46/11/18 49/11/18 32/11/18 34/11/18
f 49/11/19 50/11/19 44/11/19 32/11/19
f 32/11/20 44/11/20 45/11/20 34/11/20
f 47/11/21 51/11/21 45/11/21 33/11/21
f 156/11/22 158/13/22 41/11/22 28/11/22
f 53/11/14 58/11/14 43/11/14 29/11/14
f 10/12/12 38/1/12 39/1/12 19/1/12
f 55/11/13 59/11/13 42/11/13 27/11/13
f 64/1/23 65/1/23 71/1/23 70/1/23
f 90/7/8 8/7/8 38/7/8 96/7/8
f 73/14/5 77/3/5 117/3/5 106/14/5
f 29/15/24 43/15/24 51/15/24 47/15/24
f 28/15/13 41/15/13 50/15/13 49/15/13
f 30/15/25 28/15/25 49/15/25 46/15/25
f 41/15/13 26/15/13 48/15/13 50/15/13
f 26/11/5 29/11/5 47/11/5 48/11/5
f 43/15/26 30/15/26 46/15/26 51/15/26
f 19/16/13 39/16/13 59/16/13 55/16/13
f 21/17/14 40/17/14 58/17/14 53/17/14
f 14/1/5 21/1/5 53/1/5 57/1/5
f 149/18/17 19/17/17 55/17/17 159/18/17
f 148/19/5 14/1/5 57/1/5 161/1/5
f 22/17/17 15/17/17 56/17/17 52/17/17
f 40/17/14 22/17/14 52/17/14 58/17/14
f 39/16/13 18/20/13 54/16/13 59/16/13
f 100/2/27 129/2/27 141/19/27 98/1/27
f 103/1/12 84/1/12 61/1/12 98/1/12
f 102/21/5 143/22/5 130/21/5 99/21/5
f 86/12/1 85/12/1 63/1/1 80/2/1
f 67/1/1 69/1/1 70/1/1 71/1/1
f 64/1/1 81/1/1 4/1/1 9/1/1
f 65/1/1 64/1/1 9/1/1 37/1/1
f 66/1/1 65/1/1 37/1/1 7/1/1
f 68/1/1 67/1/1 71/1/1 72/1/1
f 11/1/17 64/1/17 70/1/17 69/1/17
f 35/1/13 11/1/13 69/1/13 67/1/13
f 65/1/23 66/1/23 72/1/23 71/1/23
f 5/1/13 35/1/13 67/1/13 68/1/13
f 84/1/1 86/12/1 80/2/1 61/1/1
f 99/1/28 130/1/28 129/2/28 100/2/28
f 76/3/5 78/3/5 119/3/5 116/3/5
f 3/5/17 89/5/17 104/5/17 105/5/17
f 62/3/5 83/14/5 127/14/5 124/14/5
f 145/23/17 17/5/17 114/5/17 165/4/17
f 1/5/17 82/4/17 123/5/17 107/6/17
f 11/1/1 74/1/1 81/1/1 64/1/1
f 10/12/12 73/2/12 87/1/12 83/2/12
f 2/2/1 74/1/1 86/12/1 84/1/1
f 74/1/1 11/1/1 85/12/1 86/12/1
f 93/21/5 142/24/5 143/22/5 102/21/5
f 88/1/12 2/2/12 84/1/12 103/1/12
f 75/5/29 3/5/29 105/5/29 111/5/29
f 1/5/30 135/5/30 134/4/30 82/4/30
f 11/1/12 93/1/12 102/1/12 85/12/12
f 12/5/29 75/5/29 111/5/29 112/5/29
f 63/1/12 99/1/12 100/2/12 80/2/12
f 85/12/12 102/1/12 99/1/12 63/1/12
f 82/4/30 134/4/30 141/4/30 60/4/30
f 80/2/12 100/2/12 98/1/12 61/1/12
f 22/1/12 40/1/12 97/1/12 92/1/12
f 5/1/12 90/1/12 96/1/12 35/1/12
f 16/1/11 94/1/11 132/1/11 137/1/11
f 4/1/12 95/1/12 94/1/12 16/1/12
f 35/1/12 96/1/12 93/1/12 11/1/12
f 78/1/12 22/1/12 92/1/12 101/1/12
f 40/1/12 21/1/12 91/1/12 97/1/12
f 2/2/12 88/1/12 95/1/12 4/1/12
f 126/14/12 123/3/12 122/25/12 121/3/12
f 120/3/12 110/3/12 109/3/12 108/3/12
f 125/3/12 113/3/12 112/3/12 111/3/12
f 113/3/12 120/3/12 108/3/12 112/3/12
f 115/3/12 116/3/12 119/3/12 118/3/12
f 107/25/12 106/14/12 117/3/12 114/3/12
f 166/14/12 168/14/12 116/3/12 115/3/12
f 104/3/12 125/3/12 111/3/12 105/3/12
f 127/14/12 126/14/12 121/3/12 124/14/12
f 106/14/12 107/25/12 123/3/12 126/14/12
f 118/3/12 119/3/12 125/3/12 104/3/12
f 91/1/5 6/1/5 109/1/5 110/1/5
f 164/14/5 76/3/5 116/3/5 168/14/5
f 79/4/6 62/5/6 124/4/6 121/5/6
f 97/3/31 91/3/31 110/3/31 120/3/31
f 20/5/17 13/5/17 115/5/17 118/5/17
f 87/3/5 73/14/5 106/14/5 126/14/5
f 36/5/32 12/5/32 112/5/32 108/5/32
f 92/3/31 97/3/31 120/3/31 113/3/31
f 82/4/17 60/4/17 122/6/17 123/5/17
f 89/5/17 20/5/17 118/5/17 104/5/17
f 83/14/33 87/3/33 126/14/33 127/14/33
f 17/5/17 1/5/17 107/6/17 114/5/17
f 6/5/32 36/5/32 108/5/32 109/5/32
f 136/5/7 137/5/7 3/5/7
f 128/5/11 138/5/11 1/5/11 17/5/11 24/5/11
f 131/1/9 139/1/9 7/1/9 37/1/9 9/1/9
f 133/1/11 128/1/11 24/1/11
f 137/5/11 132/5/11 89/5/11 3/5/11
f 132/5/11 133/5/11 24/5/11 151/4/11 152/5/11 20/5/11 89/5/11
f 141/4/34 129/4/34 79/4/34 60/4/34
f 134/19/30 135/1/30 88/1/30 103/1/30
f 140/5/10 136/5/10 3/5/10 75/5/10 12/5/10
f 131/5/4 140/5/4 12/5/4 36/5/4 6/5/4
f 138/5/35 135/5/35 1/5/35
f 141/19/30 134/19/30 103/1/30 98/1/30
f 129/4/36 130/5/36 62/5/36 79/4/36
f 130/26/5 143/26/5 83/27/5 62/26/5
f 143/22/5 142/24/5 10/28/5 83/29/5
f 45/11/37 46/11/37 34/11/37
f 45/11/12 144/11/12 33/11/12
f 77/3/5 163/14/5 167/14/5 117/3/5
f 163/14/5 164/14/5 168/14/5 167/14/5
f 114/3/12 117/3/12 167/14/12 165/14/12
f 165/14/12 167/14/12 168/14/12 166/14/12
f 13/5/17 146/10/17 166/4/17 115/5/17
f 146/10/17 145/23/17 165/4/17 166/4/17
f 18/2/5 147/30/5 162/1/5 54/1/5
f 147/30/5 148/19/5 161/1/5 162/1/5
f 15/17/17 150/31/17 160/31/17 56/17/17
f 150/31/17 149/18/17 159/18/17 160/31/17
f 27/11/22 42/11/22 157/13/22 155/13/22
f 155/13/22 157/13/22 158/13/22 156/11/22
f 56/11/17 160/13/17 156/11/17 28/11/17
f 160/13/17 159/13/17 155/13/17 156/11/17
f 54/11/5 162/13/5 153/11/5 25/11/5
f 162/13/5 161/13/5 154/11/5 153/11/5
f 42/11/15 25/11/15 153/11/15 157/13/15
f 157/13/15 153/11/15 154/11/15 158/13/15
f 77/1/12 19/1/12 149/1/12 163/1/12
f 163/1/12 149/1/12 150/1/12 164/1/12
f 24/5/11 17/5/11 145/23/11 151/4/11
f 151/4/11 145/23/11 146/10/11 152/5/11
f 222/1/1 229/1/1 172/1/1 170/2/1
f 236/1/38 241/1/38 184/1/38 282/1/38 279/1/38
f 247/3/39 269/3/39 257/3/39 238/3/39
f 173/1/40 275/1/40 283/1/40
f 226/3/17 263/3/17 269/3/17 247/3/17
f 211/4/41 266/6/41 265/5/41 227/4/41
f 172/1/42 173/1/42 280/1/42 281/1/42 179/1/42
f 242/7/8 239/7/8 285/9/8 174/8/8 194/7/8
f 6/5/43 275/5/43 139/5/43
f 173/1/44 283/1/44 280/1/44
f 292/5/45 182/5/45 177/5/45 288/10/45
f 300/1/12 224/1/12 178/1/12 290/1/12
f 210/11/13 198/11/13 25/11/13 54/11/13
f 194/1/12 195/1/12 18/2/12 8/1/12
f 221/2/12 225/1/12 181/1/12 174/12/12
f 184/1/45 272/1/45 282/1/45
f 241/1/45 240/1/45 277/1/45 272/1/45 184/1/45
f 240/1/45 276/1/45 277/1/45
f 224/1/12 226/1/12 183/1/12 178/1/12
f 209/11/46 199/11/46 188/11/46 206/11/46
f 296/13/47 197/11/47 26/11/47 154/11/47
f 205/11/48 201/11/48 202/11/48
f 206/11/5 188/11/5 187/11/5 208/11/5
f 297/13/5 293/13/5 186/11/5 207/11/5
f 200/11/12 201/11/12 144/11/12 31/11/12
f 204/11/13 200/11/13 31/11/13 48/11/13
f 202/11/49 190/11/49 189/11/49 203/11/49
f 203/11/50 189/11/50 200/11/50 204/11/50
f 189/11/51 190/11/51 201/11/51 200/11/51
f 47/11/52 33/11/52 201/11/52 205/11/52
f 294/11/53 187/11/53 197/11/53 296/13/53
f 53/11/46 29/11/46 199/11/46 209/11/46
f 174/12/12 181/1/12 195/1/12 194/1/12
f 207/11/13 186/11/13 198/11/13 210/11/13
f 215/1/54 219/1/54 220/1/54 216/1/54
f 90/7/8 242/7/8 194/7/8 8/7/8
f 221/14/17 252/14/17 261/3/17 225/3/17
f 29/15/55 47/15/55 205/15/55 199/15/55
f 187/15/13 203/15/13 204/15/13 197/15/13
f 188/15/56 202/15/56 203/15/56 187/15/56
f 197/15/13 204/15/13 48/15/13 26/15/13
f 199/15/57 205/15/57 202/15/57 188/15/57
f 181/16/13 207/16/13 210/16/13 195/16/13
f 21/17/46 53/17/46 209/17/46 196/17/46
f 289/18/5 297/18/5 207/17/5 181/17/5
f 183/17/5 206/17/5 208/17/5 178/17/5
f 196/17/46 209/17/46 206/17/46 183/17/46
f 195/16/13 210/16/13 54/16/13 18/20/13
f 246/2/58 244/1/58 284/19/58 273/2/58
f 249/1/12 244/1/12 212/1/12 232/1/12
f 248/21/17 245/21/17 274/21/17 286/22/17
f 234/12/1 228/2/1 214/1/1 233/12/1
f 217/1/1 220/1/1 219/1/1 218/1/1
f 215/1/1 173/1/1 172/1/1 229/1/1
f 216/1/1 193/1/1 173/1/1 215/1/1
f 66/1/1 7/1/1 193/1/1 216/1/1
f 68/1/1 72/1/1 220/1/1 217/1/1
f 175/1/5 218/1/5 219/1/5 215/1/5
f 191/1/13 217/1/13 218/1/13 175/1/13
f 216/1/54 220/1/54 72/1/54 66/1/54
f 5/1/13 68/1/13 217/1/13 191/1/13
f 232/1/1 212/1/1 228/2/1 234/12/1
f 245/1/59 246/2/59 273/2/59 274/1/59
f 224/3/17 260/3/17 263/3/17 226/3/17
f 171/5/5 251/5/5 250/5/5 237/5/5
f 213/3/17 268/14/17 271/14/17 231/14/17
f 287/23/5 301/4/5 258/5/5 180/5/5
f 169/5/5 253/6/5 267/5/5 230/4/5
f 175/1/1 215/1/1 229/1/1 222/1/1
f 174/12/12 231/2/12 235/1/12 221/2/12
f 170/2/1 232/1/1 234/12/1 222/1/1
f 222/1/1 234/12/1 233/12/1 175/1/1
f 239/21/17 248/21/17 286/22/17 285/24/17
f 236/1/12 249/1/12 232/1/12 170/2/12
f 223/5/60 255/5/60 251/5/60 171/5/60
f 169/5/61 230/4/61 278/4/61 279/5/61
f 175/1/12 233/12/12 248/1/12 239/1/12
f 176/5/60 256/5/60 255/5/60 223/5/60
f 214/1/12 228/2/12 246/2/12 245/1/12
f 233/12/12 214/1/12 245/1/12 248/1/12
f 230/4/61 211/4/61 284/4/61 278/4/61
f 228/2/12 212/1/12 244/1/12 246/2/12
f 183/1/12 238/1/12 243/1/12 196/1/12
f 5/1/12 191/1/12 242/1/12 90/1/12
f 179/1/45 281/1/45 276/1/45 240/1/45
f 172/1/12 179/1/12 240/1/12 241/1/12
f 191/1/12 175/1/12 239/1/12 242/1/12
f 226/1/12 247/1/12 238/1/12 183/1/12
f 196/1/12 243/1/12 91/1/12 21/1/12
f 170/2/12 172/1/12 241/1/12 236/1/12
f 270/14/12 265/3/12 266/25/12 267/3/12
f 264/3/12 254/3/12 109/3/12 110/3/12
f 269/3/12 255/3/12 256/3/12 257/3/12
f 257/3/12 256/3/12 254/3/12 264/3/12
f 259/3/12 262/3/12 263/3/12 260/3/12
f 253/25/12 258/3/12 261/3/12 252/14/12
f 302/14/12 259/3/12 260/3/12 304/14/12
f 250/3/12 251/3/12 255/3/12 269/3/12
f 271/14/12 268/14/12 265/3/12 270/14/12
f 252/14/12 270/14/12 267/3/12 253/25/12
f 262/3/12 250/3/12 269/3/12 263/3/12
f 300/14/17 304/14/17 260/3/17 224/3/17
f 227/4/41 265/5/41 268/4/41 213/5/41
f 243/3/62 264/3/62 110/3/62 91/3/62
f 182/5/5 262/5/5 259/5/5 177/5/5
f 235/3/17 270/14/17 252/14/17 221/14/17
f 192/5/63 254/5/63 256/5/63 176/5/63
f 238/3/62 257/3/62 264/3/62 243/3/62
f 230/4/5 267/5/5 266/6/5 211/4/5
f 237/5/5 250/5/5 262/5/5 182/5/5
f 231/14/64 271/14/64 270/14/64 235/3/64
f 180/5/5 258/5/5 253/6/5 169/5/5
f 6/5/63 109/5/63 254/5/63 192/5/63
f 280/5/42 171/5/42 281/5/42
f 272/5/45 185/5/45 180/5/45 169/5/45 282/5/45
f 275/1/43 173/1/43 193/1/43 7/1/43 139/1/43
f 277/1/45 185/1/45 272/1/45
f 281/5/45 171/5/45 237/5/45 276/5/45
f 276/5/45 237/5/45 182/5/45 292/5/45 291/4/45 185/5/45 277/5/45
f 284/4/65 211/4/65 227/4/65 273/4/65
f 278/19/61 249/1/61 236/1/61 279/1/61
f 283/5/44 176/5/44 223/5/44 171/5/44 280/5/44
f 275/5/40 6/5/40 192/5/40 176/5/40 283/5/40
f 282/5/66 169/5/66 279/5/66
f 284/19/61 244/1/61 249/1/61 278/19/61
f 273/4/67 227/4/67 213/5/67 274/5/67
f 274/26/17 213/26/17 231/27/17 286/26/17
f 286/22/17 231/29/17 174/28/17 285/24/17
f 201/11/68 190/11/68 202/11/68
f 201/11/12 33/11/12 144/11/12
f 225/3/17 261/3/17 303/14/17 299/14/17
f 299/14/17 303/14/17 304/14/17 300/14/17
f 258/3/12 301/14/12 303/14/12 261/3/12
f 301/14/12 302/14/12 304/14/12 303/14/12
f 177/5/5 259/5/5 302/4/5 288/10/5
f 288/10/5 302/4/5 301/4/5 287/23/5
f 178/17/5 208/17/5 298/31/5 290/31/5
f 290/31/5 298/31/5 297/18/5 289/18/5
f 186/11/53 293/13/53 295/13/53 198/11/53
f 293/13/53 294/11/53 296/13/53 295/13/53
f 208/11/5 187/11/5 294/11/5 298/13/5
f 298/13/5 294/11/5 293/13/5 297/13/5
f 198/11/47 295/13/47 153/11/47 25/11/47
f 295/13/47 296/13/47 154/11/47 153/11/47
f 225/1/12 299/1/12 289/1/12 181/1/12
f 299/1/12 300/1/12 290/1/12 289/1/12
f 185/5/45 291/4/45 287/23/45 180/5/45
f 291/4/45 292/5/45 288/10/45 287/23/45
